<svg viewBox="0 0 240 200" xmlns="http://www.w3.org/2000/svg">
  <!-- P shape -->
  <path 
    d="M 40,40 
       L 40,160 
       L 60,160 
       L 60,110 
       L 100,110 
       C 130,110 130,40 100,40 
       Z
       M 60,60 
       L 95,60 
       C 110,60 110,90 95,90 
       L 60,90 
       Z" 
    fill="black"
  />
  
  <!-- C shape -->
  <path 
    d="M 180,40 
       C 150,40 140,70 140,100 
       C 140,130 150,160 180,160 
       C 200,160 210,150 215,140 
       L 195,130 
       C 192,137 188,140 180,140 
       C 165,140 160,120 160,100 
       C 160,80 165,60 180,60 
       C 188,60 192,63 195,70 
       L 215,60 
       C 210,50 200,40 180,40 
       Z" 
    fill="black"
  />
</svg>
