<svg version="1.1"
  baseProfile="full"
  style='font-family: Lucida Console, Courier, monospace'
  width="970" height="600"
  xmlns="http://www.w3.org/2000/svg">
  <g transform="translate(80, 520)" >
  <circle fill="#87e9a9" stroke="#0f4f34" stroke-width="4px" r="30"/>
  <text stroke="black" stroke-width="1px" text-anchor="middle" alignment-baseline="central">848a</text>
</g>
<g transform="translate(80, 410)" >
  <circle fill="#87e9a9" stroke="#0f4f34" stroke-width="4px" r="30"/>
  <text stroke="black" stroke-width="1px" text-anchor="middle" alignment-baseline="central">aeb8</text>
</g>
<g transform="translate(190, 300)" >
  <circle fill="#87e9a9" stroke="#0f4f34" stroke-width="4px" r="30"/>
  <text stroke="black" stroke-width="1px" text-anchor="middle" alignment-baseline="central">847a</text>
</g>
<g transform="translate(80, 190)" >
  <circle fill="#87e9a9" stroke="#0f4f34" stroke-width="4px" r="30"/>
  <text stroke="black" stroke-width="1px" text-anchor="middle" alignment-baseline="central">26d0</text>
</g>
<g transform="translate(80, 80)" >
  <circle fill="#87e9a9" stroke="#0f4f34" stroke-width="4px" r="30"/>
  <text stroke="black" stroke-width="1px" text-anchor="middle" alignment-baseline="central">8a33</text>
</g>
 <line x1="80" y1="440" x2="80" y2="490" stroke="#0f4f34" stroke-width="4" stroke-linecap="butt"/>
 <line x1="168.78679656440357" y1="321.2132034355964" x2="101.21320343559643" y2="388.7867965644036" stroke="#0f4f34" stroke-width="4" stroke-linecap="butt"/>
 <line x1="80" y1="220" x2="80" y2="380" stroke="#0f4f34" stroke-width="4" stroke-linecap="butt"/>
 <line x1="80" y1="110" x2="80" y2="160" stroke="#0f4f34" stroke-width="4" stroke-linecap="butt"/>
<g transform="translate(270, 60)" >
  <rect fill="#C2EBF4" stroke="#0f4f34" width="300" height="40"/>
  <svg width="300" height="40">
    <text x="50%" y="50%" alignment-baseline="middle" text-anchor="middle" stroke="black" >refs/heads/master</text>
  </svg>
</g>
 <line x1="270" y1="80" x2="110" y2="80" stroke="#0f4f34" stroke-width="2" stroke-linecap="butt"/>
<g transform="translate(620, 60)" >
  <rect fill="#C2EBF4" stroke="#0f4f34" width="300" height="40"/>
  <svg width="300" height="40">
    <text x="50%" y="50%" alignment-baseline="middle" text-anchor="middle" stroke="black" >HEAD</text>
  </svg>
</g>
 <line x1="570" y1="80" x2="620" y2="80" stroke="#0f4f34" stroke-width="2" stroke-linecap="butt"/>
<g transform="translate(270, 108)" >
  <rect fill="#C2EBF4" stroke="#0f4f34" width="300" height="40"/>
  <svg width="300" height="40">
    <text x="50%" y="50%" alignment-baseline="middle" text-anchor="middle" stroke="black" >refs/remotes/origin/master</text>
  </svg>
</g>
 <line x1="270" y1="128" x2="109.08617583000769" y2="87.34808652547562" stroke="#0f4f34" stroke-width="2" stroke-linecap="butt"/>
<g transform="translate(620, 108)" >
  <rect fill="#C2EBF4" stroke="#0f4f34" width="300" height="40"/>
  <svg width="300" height="40">
    <text x="50%" y="50%" alignment-baseline="middle" text-anchor="middle" stroke="black" >refs/remotes/origin/HEAD</text>
  </svg>
</g>
 <line x1="570" y1="128" x2="620" y2="128" stroke="#0f4f34" stroke-width="2" stroke-linecap="butt"/>
</svg>